<svg xmlns="http://www.w3.org/2000/svg" viewBox="0 0 64 64"><path d="M42 0H8a7.008 7.008 0 0 0-7 7v44a5.006 5.006 0 0 0 5 5h19v7a1 1 0 0 0 1.6.8l3.4-2.55 3.4 2.55A1 1 0 0 0 35 63v-7h7a1 1 0 0 0 1-1V1a1 1 0 0 0-1-1zM3 51V7a5.008 5.008 0 0 1 4-4.899V54H6a3.003 3.003 0 0 1-3-3zm30 10-2.4-1.8a1 1 0 0 0-1.2 0L27 61v-5h6zm8-7H9V2h32z" style="fill:#ffffff"/><path d="M14 18h22a1 1 0 0 0 1-1V7a1 1 0 0 0-1-1H14a1 1 0 0 0-1 1v10a1 1 0 0 0 1 1zm1-10h20v8H15zM14 22h22a1 1 0 0 0 0-2H14a1 1 0 0 0 0 2zM14 26h8a1 1 0 0 0 0-2h-8a1 1 0 0 0 0 2zM22 28h-8a1 1 0 0 0 0 2h8a1 1 0 0 0 0-2zM62 22a3.003 3.003 0 0 1-3-3v-9a4.004 4.004 0 0 0-4-4h-2V1a1 1 0 0 0-1-1h-4a1 1 0 0 0-1 1v5h-1a1 1 0 0 0-1 1v46a1 1 0 0 0 .168.555L49 59.303V63a1 1 0 0 0 2 0v-3.697l3.832-5.748A1 1 0 0 0 55 53V8a2.002 2.002 0 0 1 2 2v9a5.006 5.006 0 0 0 5 5 1 1 0 0 0 0-2zm-15-5h6v26h-6zm0 28h6v2h-6zm2-43h2v4h-2zm4 6v7h-6V8zm-3 49.197-3-4.5V49h6v3.697z" style="fill:#ffffff"/><path d="M50 21a1 1 0 0 0-1 1v16a1 1 0 0 0 2 0V22a1 1 0 0 0-1-1z" style="fill:#ffffff"/></svg>